<svg width="118" height="45" viewBox="0 0 118 45" fill="none" xmlns="http://www.w3.org/2000/svg">
<path d="M14.97 29.28H7.11L5.85 33H0.48L8.1 11.94H14.04L21.66 33H16.23L14.97 29.28ZM13.65 25.32L11.04 17.61L8.46 25.32H13.65ZM31.5991 33.21C30.0591 33.21 28.6791 32.96 27.4591 32.46C26.2391 31.96 25.2591 31.22 24.5191 30.24C23.7991 29.26 23.4191 28.08 23.3791 26.7H28.8391C28.9191 27.48 29.1891 28.08 29.6491 28.5C30.1091 28.9 30.7091 29.1 31.4491 29.1C32.2091 29.1 32.8091 28.93 33.2491 28.59C33.6891 28.23 33.9091 27.74 33.9091 27.12C33.9091 26.6 33.7291 26.17 33.3691 25.83C33.0291 25.49 32.5991 25.21 32.0791 24.99C31.5791 24.77 30.8591 24.52 29.9191 24.24C28.5591 23.82 27.4491 23.4 26.5891 22.98C25.7291 22.56 24.9891 21.94 24.3691 21.12C23.7491 20.3 23.4391 19.23 23.4391 17.91C23.4391 15.95 24.1491 14.42 25.5691 13.32C26.9891 12.2 28.8391 11.64 31.1191 11.64C33.4391 11.64 35.3091 12.2 36.7291 13.32C38.1491 14.42 38.9091 15.96 39.0091 17.94H33.4591C33.4191 17.26 33.1691 16.73 32.7091 16.35C32.2491 15.95 31.6591 15.75 30.9391 15.75C30.3191 15.75 29.8191 15.92 29.4391 16.26C29.0591 16.58 28.8691 17.05 28.8691 17.67C28.8691 18.35 29.1891 18.88 29.8291 19.26C30.4691 19.64 31.4691 20.05 32.8291 20.49C34.1891 20.95 35.2891 21.39 36.1291 21.81C36.9891 22.23 37.7291 22.84 38.3491 23.64C38.9691 24.44 39.2791 25.47 39.2791 26.73C39.2791 27.93 38.9691 29.02 38.3491 30C37.7491 30.98 36.8691 31.76 35.7091 32.34C34.5491 32.92 33.1791 33.21 31.5991 33.21Z" fill="#0D47A1"/>
<path d="M48.8442 12.1436L59.134 25.0789V16.1118C59.134 14.8608 58.9546 14.0149 58.5957 13.574C58.1035 12.9792 57.2781 12.6921 56.1194 12.7126V12.1436H63.01V12.7126C62.1282 12.8254 61.5334 12.9741 61.2258 13.1587C60.9285 13.333 60.6926 13.6252 60.5183 14.0354C60.3542 14.4353 60.2722 15.1274 60.2722 16.1118V33.4768H59.7493L45.645 16.1118V29.3701C45.645 30.5698 45.9167 31.3799 46.4602 31.8003C47.0139 32.2207 47.6445 32.4309 48.3521 32.4309H48.8442V33H41.446V32.4309C42.5945 32.4207 43.3943 32.1848 43.8455 31.7234C44.2966 31.262 44.5222 30.4775 44.5222 29.3701V14.6506L44.0762 14.0969C43.6353 13.5432 43.2456 13.1792 42.9072 13.0049C42.5688 12.8306 42.0818 12.7332 41.446 12.7126V12.1436H48.8442ZM77.0066 25.2942H69.1162C69.2085 27.2014 69.7161 28.7087 70.6389 29.8162C71.3464 30.6672 72.1975 31.0928 73.1921 31.0928C73.8074 31.0928 74.3662 30.9236 74.8687 30.5852C75.3711 30.2366 75.9094 29.6162 76.4836 28.7241L77.0066 29.0625C76.2273 30.6519 75.366 31.7798 74.4226 32.4463C73.4792 33.1025 72.3872 33.4307 71.1465 33.4307C69.0137 33.4307 67.3987 32.6104 66.3015 30.9697C65.4197 29.647 64.9788 28.0063 64.9788 26.0479C64.9788 23.6484 65.6248 21.7412 66.9167 20.3262C68.219 18.9009 69.7417 18.1882 71.4849 18.1882C72.9409 18.1882 74.2021 18.7881 75.2686 19.9878C76.3452 21.1772 76.9246 22.946 77.0066 25.2942ZM73.2229 24.2637C73.2229 22.6128 73.1306 21.4797 72.946 20.8645C72.7717 20.2493 72.4949 19.7827 72.1155 19.4648C71.9001 19.2803 71.613 19.188 71.2542 19.188C70.7209 19.188 70.2852 19.4495 69.9468 19.9724C69.3418 20.885 69.0393 22.136 69.0393 23.7253V24.2637H73.2229ZM93.0796 33.4307L89.1421 22.8794L85.2815 33.4307H84.4817L80.6519 23.0024C80.0776 21.4131 79.5906 20.3774 79.1907 19.8955C78.9343 19.5674 78.5447 19.3315 78.0217 19.188V18.6189H85.2815V19.188C84.7893 19.188 84.4509 19.2598 84.2664 19.4033C84.0818 19.5469 83.9895 19.7109 83.9895 19.8955C83.9895 20.0698 84.1536 20.5928 84.4817 21.4644L86.5889 27.0784L88.6191 21.4644L88.4653 21.0952C88.1577 20.3262 87.886 19.8391 87.6501 19.634C87.4246 19.4187 87.0708 19.27 86.5889 19.188V18.6189H93.9563V19.188C93.3821 19.2188 93.0181 19.3008 92.8643 19.4341C92.7104 19.5571 92.6335 19.7366 92.6335 19.9724C92.6335 20.198 92.7822 20.6953 93.0796 21.4644L95.1099 27.0784L96.9556 21.9104C97.2222 21.1721 97.3555 20.6697 97.3555 20.4031C97.3555 20.0032 97.2581 19.7109 97.0632 19.5264C96.8684 19.3418 96.489 19.229 95.925 19.188V18.6189H100.186V19.188C99.7139 19.2495 99.3396 19.4187 99.0627 19.6956C98.7859 19.9622 98.427 20.7312 97.9861 22.0027L93.9563 33.4307H93.0796ZM110.675 18.219L110.906 23.1255H110.383C109.758 21.6694 109.106 20.6748 108.43 20.1416C107.763 19.6084 107.097 19.3418 106.43 19.3418C106.01 19.3418 105.651 19.4854 105.354 19.7725C105.056 20.0493 104.907 20.3723 104.907 20.7415C104.907 21.0183 105.01 21.2849 105.215 21.5413C105.543 21.9617 106.461 22.6846 107.968 23.71C109.476 24.7251 110.465 25.5916 110.937 26.3093C111.419 27.0168 111.66 27.8115 111.66 28.6934C111.66 29.4932 111.46 30.2776 111.06 31.0466C110.66 31.8157 110.096 32.4053 109.368 32.8154C108.64 33.2256 107.835 33.4307 106.953 33.4307C106.266 33.4307 105.348 33.2153 104.2 32.7847C103.892 32.6719 103.682 32.6155 103.569 32.6155C103.231 32.6155 102.949 32.8718 102.723 33.3845H102.216L101.97 28.2166H102.493C102.954 29.5701 103.585 30.5852 104.385 31.262C105.195 31.9387 105.958 32.2771 106.676 32.2771C107.168 32.2771 107.568 32.1284 107.876 31.8311C108.194 31.5234 108.353 31.1543 108.353 30.7236C108.353 30.2314 108.199 29.8059 107.891 29.447C107.584 29.0881 106.897 28.5447 105.83 27.8167C104.261 26.7297 103.246 25.8992 102.785 25.325C102.108 24.4841 101.77 23.5562 101.77 22.541C101.77 21.4336 102.149 20.4338 102.908 19.5417C103.677 18.6394 104.784 18.1882 106.23 18.1882C107.01 18.1882 107.763 18.3779 108.491 18.7573C108.768 18.9111 108.994 18.988 109.168 18.988C109.353 18.988 109.501 18.9521 109.614 18.8804C109.727 18.7983 109.906 18.5779 110.152 18.219H110.675Z" fill="#212121"/>
</svg>
